<svg viewBox="0 0 305 135" xmlns="http://www.w3.org/2000/svg">
  <defs>
    <linearGradient id="a" x1="0" x2="1" y1="0" y2="0" gradientTransform="scale(-3088.467 3088.467) rotate(-13 9.111 26.34)" gradientUnits="userSpaceOnUse" spreadMethod="pad">
      <stop offset="0" stop-color="#60b0e2"></stop>
      <stop offset="1" stop-color="#916eb0"></stop>
    </linearGradient>
    <linearGradient id="b" x1="0" x2="1" y1="0" y2="0" gradientTransform="scale(3781.58 -3781.58) rotate(-69 1.673 -4.719)" gradientUnits="userSpaceOnUse" spreadMethod="pad">
      <stop offset="0" stop-color="#60b0e2"></stop>
      <stop offset="1" stop-color="#916eb0"></stop>
    </linearGradient>
  </defs>
  <g fill-rule="evenodd" transform="matrix(0.085997, 0, 0, 0.089399, -72.350189, -42.222744)">
    <path fill="var(--hls-svg-error-color-primary)" d="M2265.48 1074.013h-25.44c-17.44 0-31.573 14.134-31.573 31.574v51.16c0 17.426-14.134 31.56-31.574 31.56h-154.986c-17.427 0-31.56-14.134-31.56-31.56v-51.16c0-17.44-14.147-31.574-31.574-31.574H1676.16c-17.44 0-31.573-14.133-31.573-31.573V940.987a31.605 31.605 0 0 1 5.586-17.947l267.894-387.84a31.561 31.561 0 0 1 25.973-13.627h155.04c25.2 0 40.24 28.067 26.28 49.054l-186.213 280.026c-13.947 20.987 1.093 49.054 26.293 49.054 17.44 0 31.573-14.134 31.573-31.574V829.36c0-17.44 14.134-31.573 31.574-31.573h148.306c17.44 0 31.574 14.133 31.574 31.573v38.773c0 17.44 14.133 31.574 31.573 31.574h25.44c17.427 0 31.573 14.133 31.573 31.573v111.16c0 17.44-14.146 31.573-31.573 31.573M2706.613 854.947c0-112.4-25.4-168.6-76.2-168.6-50.813 0-76.2 56.2-76.2 168.6 0 112.386 25.387 168.586 76.2 168.586 50.8 0 76.2-56.2 76.2-168.586zm-232.88 307.173c-45.413-27.627-80.973-67.627-106.693-120.013-25.707-52.387-38.573-114.774-38.573-187.16 0-72.4 12.866-134.787 38.573-187.174 25.72-52.386 61.28-92.386 106.693-120.013 45.387-27.627 97.627-41.427 156.68-41.427 59.054 0 111.267 13.8 156.68 41.427 45.4 27.627 80.96 67.627 106.68 120.013 25.72 52.387 38.587 114.774 38.587 187.174 0 72.386-12.867 134.773-38.587 187.16-25.72 52.386-61.28 92.386-106.68 120.013-45.413 27.627-97.626 41.44-156.68 41.44-59.053 0-111.293-13.813-156.68-41.44M3602.76 1074.013h-25.44c-17.44 0-31.573 14.134-31.573 31.574v51.16c0 17.426-14.134 31.56-31.574 31.56H3359.2c-17.44 0-31.573-14.134-31.573-31.56v-51.16c0-17.44-14.134-31.574-31.574-31.574H3013.44c-17.427 0-31.56-14.133-31.56-31.573V940.987a31.605 31.605 0 0 1 5.587-17.947l267.88-387.84a31.585 31.585 0 0 1 25.986-13.627h155.027c25.2 0 40.24 28.067 26.28 49.054l-186.213 280.026c-13.947 20.987 1.093 49.054 26.293 49.054 17.44 0 31.573-14.134 31.573-31.574V829.36c0-17.44 14.134-31.573 31.574-31.573h148.306c17.44 0 31.574 14.133 31.574 31.573v38.773c0 17.44 14.133 31.574 31.573 31.574h25.44c17.44 0 31.573 14.133 31.573 31.573v111.16c0 17.44-14.133 31.573-31.573 31.573"></path>
    <path fill="var(--hls-svg-error-color-secondary)" d="M1167.701 1598.333c97.672 0 178.459-31.333 244.899-94.546 79.48-75.627 125.48-183.12 169.973-287.08 50.28-117.507 97.774-228.494 184.507-256.254 38.213-12.226 72.987-8.12 106.267 12.587 146.36 91.08 201.826 453.68 202.373 457.333l49.453-7.36c-2.36-15.84-59.626-389.253-225.413-492.413-45.84-28.547-95.613-34.52-147.92-17.773-108.493 34.733-160.347 155.92-215.24 284.213-85.32 199.36-173.52 405.52-480.547 338.133l-148.532-48.053c-13.133-4.24-27.226 2.96-31.473 16.093-4.25 13.134 2.96 27.24 16.1 31.48l151.953 49.054c43.93 9.72 85.08 14.586 123.6 14.586"></path>
    <path fill="url(#a)" d="m15095 6160.4-399.1 1934.9c-137.8 668.2 251.4 1332.5 901.6 1539.1 727.4 231.1 1500-194.9 1692.7-933.5l489.7-1876.7-2684.9-663.8" transform="matrix(.1333 0 0 -.1333 0 2666.667)"></path>
    <path fill="#9186dd" d="M2012.773 1852.107c5.72 23.746 91.52 23.44 191.627-.68 100.12-24.107 176.64-62.907 170.92-86.64-5.72-23.747-91.52-23.44-191.627.68-100.106 24.106-176.626 62.906-170.92 86.64"></path>
    <path fill="var(--hls-svg-error-color-secondary)" d="M2228.947 1782.12c-1.44 8 12.88 17.28 31.986 20.707 19.107 3.44 35.76-.28 37.187-8.294 1.44-8.013-12.88-17.28-31.987-20.72-19.093-3.426-35.746.294-37.186 8.307M2102.787 1820.8c-1.44 8.013 12.88 17.293 31.986 20.72 19.107 3.427 35.76-.293 37.2-8.293 1.427-8.014-12.893-17.294-32-20.72-19.093-3.427-35.746.28-37.186 8.293"></path>
    <path fill="#bbd1f5" d="M2172.987 1412.32s77.2 28.08 101.76 108.773c24.56 80.707 45.613 184.214 45.613 184.214l-70.173 1.76-77.2-294.747"></path>
    <path fill="var(--hls-svg-error-color-secondary)" d="m2105.013 1320.88-37.28 65.133 49.12-11.413zM3009.827 1814.067h-.014l-11.72 21.213 11.734-21.213zm1347.853-561.32-19.88 44.2c-3.467-1.56-85.547-39.64-160.907-173.774-21.786-38.773-55.2-84.133-90.653-79.946-25.427 3-92.867 39.12-169.56 309.026-83.627 294.347-262.493 486.68-531.627 571.627-174.186 54.987-389.6-62.373-398.68-67.4l23.454-42.413c2.706 1.493 206.68 112.2 360.64 63.6 252.613-79.747 420.706-260.974 499.6-538.654 63.12-222.16 131.973-334.653 210.493-343.92 49.747-5.88 96.373 29.24 138.587 104.334 67.64 120.386 137.826 153 138.533 153.32M2560.08 1637.72l127.667 92.52c10.666 7.72 13.053 22.64 5.32 33.307-7.734 10.666-22.654 13.053-33.32 5.32l-127.654-92.507c-10.666-7.733-13.053-22.64-5.32-33.307 7.734-10.68 22.64-13.053 33.307-5.333M2658.56 1496.013l127.667 92.507c10.666 7.733 13.053 22.653 5.32 33.32-7.734 10.667-22.64 13.053-33.307 5.32l-127.667-92.507c-10.666-7.733-13.053-22.653-5.32-33.32 7.734-10.666 22.64-13.053 33.307-5.32"></path>
    <path fill="var(--hls-svg-error-color-secondary)" d="M3105.24 1864.147 3026 1875.96l21.933-44.173 74.907 29.506-17.6 2.854"></path>
    <path fill="url(#b)" d="m19273.5 6724.3 1656.4-1076.8c572-371.9 1332.4-251.6 1761.7 278.6 480.4 593.2 365.2 1467.9-252.3 1916.5l-1569.2 1140-1596.6-2258.3" transform="matrix(.1333 0 0 -.1333 0 2666.667)"></path>
    <path fill="#bbd1f5" d="m2643.853 1780.613 50.84-68.8 260.854 187.894s-62.52 31.146-134.507-3.84c-71.973-34.987-177.187-115.254-177.187-115.254"></path>
  </g>
</svg>
